<?xml version="1.0" encoding="UTF-8" standalone="no"?><svg xmlns="http://www.w3.org/2000/svg" width="300" height="257" version="1"><path fill="#455c91" stroke="#485c90" d="M148 12l1 41c-10 20-29 52-43 64l-1-2H10c-5 0-10 5-10 9l10 121c0 4 4 9 9 9h84c3 0 8-3 8-7v-11c3 4 10 10 17 10h113c14 0 36-15 29-41 8-6 13-17 8-31 9-7 15-20 8-32 23-19 8-46-10-46h-76c3-12 7-25 7-42 0-15-10-36-17-47-3-5-29-14-42 5z"/><path fill="#6e7fb3" d="M11 126h80v118H20z"/><path fill="#6475ab" d="M20 142h63v95H28z"/><path fill="#edf5f7" d="M187 107a370 370 0 0 0 8-57c-3-13-8-24-13-35-5-4-14-6-22 0v40c-12 24-25 47-42 68l-16 11v92h11l15 8 114 1c6 0 28-16 14-29-2-1-2-4 0-6 9-1 19-18 8-26-2-2 0-6 2-6 7-3 18-14 8-26-2-1-3-4-1-6 10-1 23-23 2-29z"/><path fill="#dce4e7" d="M110 226v-98l-8 5v93zM171 11l9 41-25 44c-2 5 1 10 5 10l27 1c4-19 9-41 8-55-2-10-6-23-13-37-4-3-7-4-11-4zM240 107c9 8 4 24-4 30-1 1-2 3-1 4 9 10-2 27-6 28l-1 4c10 14-2 25-6 28v5c8 13-2 23-7 29h28c5 0 27-16 13-29-2-2-1-5 0-6 7-1 21-16 8-26-1-1-1-4 2-6 10-4 16-15 8-26-3-2-2-5-1-6 17-5 18-27 2-29z"/><path fill="#fff" d="M78 225"/><path d="M69 227"/></svg>
